# xmcd CD database file
#
# Track frame offsets:
#	150
#	16626
#	38754
#	56921
#	87144
#	120195
#	142679
#	168675
#	186747
#	208247
#	228162
#	261127
#	286442
#	313726
#	328270
#
# Disc length: 4796 seconds
#
# Revision: 0
# Processed by: cddbd v1.5.1PL0 Copyright (c) Steve Scherf et al.
# Submitted via: CDex 1.51
#
DISCID=d512ba0f
DTITLE=DOWN FORCE RECORDS - WORKS AND PLEASURE 2000-2004
DYEAR=1900
DGENRE=エレクトロニック (一般)
TTITLE0=visionz
TTITLE1=out of mode 20
TTITLE2=innergate
TTITLE3=depatures
TTITLE4=sora, Kuraku.
TTITLE5=nostalgia
TTITLE6=tears
TTITLE7=hypnosis
TTITLE8=never forget to love
TTITLE9=into the mode 21
TTITLE10=engage
TTITLE11=brains
TTITLE12=Floating - point underflow
TTITLE13=MEMORIES
TTITLE14=HOLD
EXTD=
EXTT0=
EXTT1=
EXTT2=
EXTT3=
EXTT4=
EXTT5=
EXTT6=
EXTT7=
EXTT8=
EXTT9=
EXTT10=
EXTT11=
EXTT12=
EXTT13=
EXTT14=
PLAYORDER=
